<?xml version="1.0" encoding="utf-8"?>
<!-- Generator: Adobe Illustrator 21.1.0, SVG Export Plug-In . SVG Version: 6.00 Build 0)  -->
<svg version="1.1" id="Слой_1" xmlns="http://www.w3.org/2000/svg" xmlns:xlink="http://www.w3.org/1999/xlink" x="0px" y="0px"
	 viewBox="0 0 850.4 850.4" style="enable-background:new 0 0 850.4 850.4;" xml:space="preserve">
<style type="text/css">
	.st0{fill:#FFD581;stroke:#000000;stroke-miterlimit:10;}
	.st1{fill:#82ACFF;stroke:#000000;stroke-miterlimit:10;}
</style>
<path class="st0" d="M747.5,765h-630C99.1,765,84,749.9,84,731.5v-630C84,83.1,99.1,68,117.5,68h630c18.4,0,33.5,15.1,33.5,33.5v630
	C781,749.9,765.9,765,747.5,765z"/>
<path class="st1" d="M736,559H130c-6.6,0-12-5.4-12-12V112c0-6.6,5.4-12,12-12h606c6.6,0,12,5.4,12,12v435
	C748,553.6,742.6,559,736,559z"/>
</svg>
