<?xml version="1.0" encoding="utf-8"?>
<!-- Generator: Adobe Illustrator 21.1.0, SVG Export Plug-In . SVG Version: 6.00 Build 0)  -->
<svg version="1.1" id="Слой_1" xmlns="http://www.w3.org/2000/svg" xmlns:xlink="http://www.w3.org/1999/xlink" x="0px" y="0px"
	 viewBox="0 0 850.4 850.4" style="enable-background:new 0 0 850.4 850.4;" xml:space="preserve">
<style type="text/css">
	.st0{fill:#FFFFFF;stroke:#FFFFFF;stroke-width:4;stroke-miterlimit:10;}
	.st1{fill:none;stroke:#000000;stroke-width:5;stroke-miterlimit:10;}
	.st2{fill:none;stroke:#FFFFFF;stroke-width:7;stroke-miterlimit:10;}
	.st3{fill:none;stroke:#FFFFFF;stroke-width:5;stroke-miterlimit:10;}
	.st4{fill:#FFA45C;}
</style>
<ellipse class="st0" cx="444.8" cy="409.8" rx="329.7" ry="341.5"/>
<line class="st1" x1="635.1" y1="128.9" x2="635.1" y2="128.9"/>
<line class="st2" x1="439.7" y1="501.3" x2="375.6" y2="445.6"/>
<line class="st3" x1="386.7" y1="455.1" x2="319.1" y2="525.1"/>
<line class="st3" x1="407.7" y1="473.4" x2="318.9" y2="565.3"/>
<line class="st3" x1="432.5" y1="495" x2="342.9" y2="587.8"/>
<g transform="translate(0.000000,488.000000) scale(0.100000,-0.100000)">
	<path class="st4" d="M4076.2,3064.6c0-4,6-12,14-16c13-7,295-274,461-436c39-38,112-108,164-156l94-88l-21-34
		c-28-47-122-237-122-249c0-16-267-13-274,3c-5,10-7,10-12,0c-4-10-239-13-1125-13c-1229,0-1149,4-1203-60l-26-32v-1438v-1438l27-33
		c52-61,25-59,803-59c390,0,710-3,710-7c-1-48-41-298-51-309c-6-8-38-30-70-50c-48-29-61-42-70-75c-11-34-10-42,6-59
		c18-20,30-20,700-20c516,0,684,3,693,12c20,20,14,67-11,91c-13,12-49,41-79,63c-62,47-60,42-87,227l-18,127h724c792,0,764-2,816,59
		l27,33v1098c0,1084,0,1100,20,1135c11,20,27,46,34,58c8,12,17,38,21,57s13,44,19,55c7,11,19,45,25,75c7,30,19,68,27,83
		c8,16,14,34,14,41c0,9,54,12,220,11c121,0,220-2,220-5s87-6,193-8c105-1,243-3,305-5c61-1,112,1,112,4c0,9-25,29-80,64
		c-104,66-165,108-168,117c-2,5-30,22-62,38c-33,16-62,35-67,42c-9,15-63,52-296,207c-37,24-67,47-67,51s-27,22-60,39
		c-32,18-62,36-65,42c-4,5-32,25-62,45c-31,20-63,42-71,50s-31,23-52,34s-44,25-51,33c-20,19-134,98-184,127c-25,14-55,35-67,47
		c-13,11-43,33-68,48c-25,16-55,37-67,49c-20,19-86,35-208,51c-22,3-69,12-105,20s-94,19-130,25s-105,17-155,26c-49,8-108,17-130,20
		s-62,11-90,19c-27,8-78,16-113,19s-71,10-80,15c-10,5-50,13-90,16c-40,4-72,11-72,14c0,4-17,8-37,9c-57,3-117,13-128,22
		c-5,4-49,11-97,15c-49,4-88,11-88,15c0,5-35,11-77,15c-43,4-82,11-88,15C4166.2,3066.6,4076.2,3074.6,4076.2,3064.6z
		 M4650.2,1978.6c-3-10,2-42,9-70l14-53h-1202c-1001,0-1204-2-1214-14c-8-10-10-304-9-1097l3-1084h1835h1835l3,794l2,793l27-5
		c15-3,47,1,72,9s47,14,49,14c1,0,2-394,2-875v-875h-1990h-1990l2,1221l3,1221l24,19c23,18,57,19,1276,19
		C4589.2,1995.6,4654.2,1994.6,4650.2,1978.6z M4758.2,1750.6c287-231,398-295,690-405c90-34,329-90,384-90h24v-765v-765h-1770
		h-1770v1030v1030h1199h1199L4758.2,1750.6z M6076.2-703.4c0-144-1-151-24-178l-24-28l-1924-3c-1057-1-1933,0-1946,3
		c-12,3-31,14-42,25c-18,18-20,34-20,175v155h1990h1990V-703.4z M4500.2-982.4c2-4,14-75,26-157s28-161,36-176c7-15,35-44,61-65
		c27-21,52-42,58-46c5-4-269-8-609-8h-619l39,26c60,40,93,74,104,108c8,25,50,291,50,319C3646.2-972.4,4493.2-972.4,4500.2-982.4z"
		/>
	<path class="st4" d="M2674.2,1571.6c-46-24-48-25-48-6c0,18-7,20-55,20h-55v-260v-260h55h55v79v80l37-15c74-31,155,2,192,79
		c23,48,28,145,11,208C2842.2,1582.6,2757.2,1616.6,2674.2,1571.6z M2742.2,1484.6c14-16,19-36,19-84c0-83-26-115-92-115h-43v100
		c0,84,3,101,18,109C2673.2,1512.6,2721.2,1507.6,2742.2,1484.6z"/>
	<path class="st4" d="M3333.2,1581.6c-50-19-76-42-98-91c-38-82-15-205,46-253c58-46,155-52,231-16c119,56,118,292-1,348
		C3461.2,1593.6,3379.2,1598.6,3333.2,1581.6z M3462.2,1489.6c19-28,30-109,20-149c-16-65-87-87-125-39c-30,38-30,150,0,188
		C3385.2,1525.6,3439.2,1525.6,3462.2,1489.6z"/>
	<path class="st4" d="M3736.2,1573.6c-55-28-80-70-87-146c-11-116,36-195,122-208c34-5,54-2,85,14l40,19v-28c0-16-9-38-21-50
		c-19-19-30-21-88-16c-36,2-74,8-84,12c-16,7-18,3-15-41l3-49l65-9c88-12,170,6,209,44c41,42,51,97,51,294v176h-54c-30,0-57-4-61-9
		c-3-6-19-4-40,5C3814.2,1600.6,3788.2,1599.6,3736.2,1573.6z M3896.2,1411.6c0-103-2-106-65-106c-46,0-65,29-65,98s29,102,90,102
		h40V1411.6z"/>
	<path class="st4" d="M2946.2,1395.6v-190h55h55v130v130l26,10c14,6,45,10,70,10h44v51v52l-35-6c-19-3-48-15-64-26
		c-37-27-41-26-41,4c0,24-3,25-55,25h-55V1395.6z"/>
	<path class="st4" d="M2804.2,836.6c-31-17-38-18-38-6c0,11-12,15-45,15h-45v-155v-155h45h45v114c0,122,2,126,54,126
		c40,0,46-18,46-132v-108h46h46l-4,135c-3,120-5,137-24,155C2900.2,856.6,2848.2,860.6,2804.2,836.6z"/>
	<path class="st4" d="M2506.2,690.6v-155h45h45v155v155h-45h-45V690.6z"/>
	<path class="st4" d="M3016.2,125.6v-190h45h44l3,103l3,102h35c42,0,48-15,49-127l1-78h41h41l-4,116c-3,113-4,116-31,140
		c-32,28-60,30-101,9c-15-8-30-15-32-15s-4,29-4,65v65h-45h-45V125.6z"/>
	<path class="st4" d="M3956.2,125.6v-190h45h45v190v190h-45h-45V125.6z"/>
	<path class="st4" d="M2549.2,204.6c-39-11-63-43-63-83c0-41,24-64,87-82c41-12,53-20,51-32c-4-23-69-28-108-8l-30,14v-33
		c0-32,3-35,42-45c94-26,182,15,182,85c0,45-26,70-83,80c-42,7-67,27-56,45c9,15,72,12,105-5l30-16v35c0,32-3,36-37,45
		C2624.2,217.6,2593.2,217.6,2549.2,204.6z"/>
	<path class="st4" d="M2830.2,204.6c-93-27-121-173-45-241c34-31,100-44,151-31c31,8,35,13,38,47c3,38,3,38-20,22
		c-31-22-84-20-108,4c-14,14-20,33-20,65c0,78,64,111,124,64l26-20v39c0,36-3,41-31,51C2908.2,217.6,2874.2,217.6,2830.2,204.6z"/>
	<path class="st4" d="M3401.2,202.6c-63-29-88-89-74-172c18-102,165-139,239-60c19,20,25,39,27,88c4,69-7,99-48,130
		C3511.2,213.6,3440.2,219.6,3401.2,202.6z M3500.2,133.6c9-12,16-41,16-63c0-72-48-108-92-68c-24,22-25,109-1,135
		C3445.2,162.6,3482.2,160.6,3500.2,133.6z"/>
	<path class="st4" d="M3711.2,202.6c-63-29-88-89-74-172c18-102,165-139,239-60c19,20,25,39,27,88c4,69-7,99-48,130
		C3821.2,213.6,3750.2,219.6,3711.2,202.6z M3810.2,133.6c9-12,16-41,16-63c0-72-48-108-92-68c-24,22-25,109-1,135
		C3755.2,162.6,3792.2,160.6,3810.2,133.6z"/>
	<path class="st4" d="M4059.2-641.4c-12-2-33-16-47-30c-59-59-14-163,72-163c103,0,133,145,38,185c-20,8-37,14-38,14
		C4082.2-636.4,4071.2-639.4,4059.2-641.4z"/>
</g>
</svg>
