<?xml version="1.0" encoding="utf-8"?>
<!-- Generator: Adobe Illustrator 21.1.0, SVG Export Plug-In . SVG Version: 6.00 Build 0)  -->
<svg version="1.1" id="Слой_1" xmlns="http://www.w3.org/2000/svg" xmlns:xlink="http://www.w3.org/1999/xlink" x="0px" y="0px"
	 viewBox="0 0 850.4 850.4" style="enable-background:new 0 0 850.4 850.4;" xml:space="preserve">
<style type="text/css">
	.st0{fill:#FFD581;stroke:#FFFFFF;stroke-width:13;stroke-miterlimit:10;}
	.st1{fill:none;stroke:#000000;stroke-width:5;stroke-miterlimit:10;}
	.st2{fill:#6927FF;stroke:#FFFFFF;stroke-width:7;stroke-miterlimit:10;}
	.st3{fill:none;stroke:#FFFFFF;stroke-width:7;stroke-miterlimit:10;}
	.st4{fill:none;stroke:#FFFFFF;stroke-width:5;stroke-miterlimit:10;}
</style>
<ellipse class="st0" cx="439" cy="403.5" rx="329.7" ry="341.5"/>
<line class="st1" x1="635.1" y1="128.9" x2="635.1" y2="128.9"/>
<path class="st2" d="M710.3,221c-23.1,41.9-56.8,93.8-105.1,146.3c-59.4,64.5-119.7,106.9-165.5,134c-1.5,11.3-7.6,45.6-37.7,68.9
	c-36.4,28.1-81.5,19.5-91.4,17.4c3.4-8.6,7.7-21.8,9.3-38.3c3-32.8-7.9-47-2.4-64.6c4-12.8,17-28.5,58.2-39.1
	c29.4-48.1,71.2-107,129.3-166.3c54.1-55.3,107.4-95.8,151.8-124.9"/>
<line class="st3" x1="439.7" y1="501.3" x2="375.6" y2="445.6"/>
<line class="st4" x1="386.7" y1="455.1" x2="319.1" y2="525.1"/>
<line class="st4" x1="407.7" y1="473.4" x2="318.9" y2="565.3"/>
<line class="st4" x1="432.5" y1="495" x2="342.9" y2="587.8"/>
</svg>
